# xmcd CD database file
#
# Track frame offsets:
#	187
#	21544
#	41504
#	62759
#
# Disc length: 1099 seconds
#
# Revision: 0
# Processed by: cddbd v1.5.1PL0 Copyright (c) Steve Scherf et al.
# Submitted via: CDex 1.51
#
DISCID=31044904
DTITLE=恋愛信号 - Girl Friend
DYEAR=1998
DGENRE=J-POP
TTITLE0=Girl Friend
TTITLE1=逢いたくて
TTITLE2=Girl Friend(inst)
TTITLE3=逢いたくて(inst)
EXTD=YEAR: 1998
EXTT0=
EXTT1=
EXTT2=
EXTT3=
PLAYORDER=
